<svg xmlns="http://www.w3.org/2000/svg" xmlns:xlink="http://www.w3.org/1999/xlink" width="1080" zoomAndPan="magnify" viewBox="0 0 810 809.999993" height="1080" preserveAspectRatio="xMidYMid meet" version="1.0"><defs><clipPath id="55aec3cd21"><path d="M 243 260.96875 L 567 260.96875 L 567 548.96875 L 243 548.96875 Z M 243 260.96875 " clip-rule="nonzero"/></clipPath><clipPath id="f3355f69f9"><rect x="0" width="324" y="0" height="289"/></clipPath></defs><g clip-path="url(#55aec3cd21)"><g transform="matrix(1, 0, 0, 1, 243, 260)"><g clip-path="url(#f3355f69f9)"><path fill="#e7e7e7" d="M 2.453125 47.441406 C 2.964844 35.691406 9.105469 23.703125 20.011719 17.613281 C 49.847656 0.953125 88.511719 27.964844 80.6875 60.542969 C 74.472656 86.402344 43.902344 99.355469 20.117188 86.578125 C 8.023438 80.078125 1.824219 61.925781 2.453125 47.441406 Z M 2.453125 47.441406 " fill-opacity="1" fill-rule="nonzero"/><path fill="#d4d4d4" d="M 6.25 47.886719 C 6.714844 37.257812 12.265625 26.421875 22.125 20.917969 C 49.101562 5.851562 84.054688 30.273438 76.980469 59.726562 C 71.363281 83.105469 43.726562 94.820312 22.21875 83.265625 C 11.285156 77.390625 5.679688 60.980469 6.25 47.886719 Z M 6.25 47.886719 " fill-opacity="1" fill-rule="nonzero"/><path fill="#ffffff" d="M 26.726562 50.265625 C 26.925781 45.714844 29.300781 41.074219 33.523438 38.71875 C 45.074219 32.269531 60.042969 42.726562 57.011719 55.335938 C 54.609375 65.347656 42.773438 70.363281 33.566406 65.414062 C 28.882812 62.898438 26.484375 55.871094 26.726562 50.265625 Z M 26.726562 50.265625 " fill-opacity="1" fill-rule="nonzero"/><path fill="#414370" d="M 39.921875 93.085938 C 44.359375 93.085938 48.835938 92.410156 53.230469 91.046875 C 54.027344 90.796875 54.476562 89.949219 54.226562 89.148438 C 53.980469 88.351562 53.128906 87.90625 52.332031 88.152344 C 41.671875 91.460938 30.488281 90.429688 20.835938 85.242188 C 9.089844 78.933594 3.378906 61.09375 3.96875 47.511719 C 4.003906 46.671875 3.355469 45.964844 2.519531 45.929688 C 1.691406 45.882812 0.976562 46.542969 0.941406 47.378906 C 0.308594 61.882812 6.566406 81.019531 19.402344 87.914062 C 25.789062 91.34375 32.804688 93.085938 39.921875 93.085938 Z M 39.921875 93.085938 " fill-opacity="1" fill-rule="nonzero"/><path fill="#414370" d="M 80.6875 62.058594 C 81.371094 62.058594 81.992188 61.589844 82.160156 60.894531 C 87.816406 37.339844 70.574219 17.792969 50.636719 12.5 C 49.828125 12.289062 49 12.769531 48.785156 13.578125 C 48.570312 14.386719 49.050781 15.214844 49.859375 15.429688 C 68.394531 20.347656 84.4375 38.433594 79.214844 60.1875 C 79.019531 61 79.519531 61.820312 80.332031 62.015625 C 80.453125 62.042969 80.570312 62.058594 80.6875 62.058594 Z M 80.6875 62.058594 " fill-opacity="1" fill-rule="nonzero"/><path fill="#f5cfc1" d="M 42.667969 105.335938 C 46.148438 83.007812 31.390625 65.222656 49.46875 53.527344 C 76.484375 36.046875 73.511719 61.171875 87.054688 81.371094 C 103.886719 106.484375 123.414062 147.132812 123.003906 179 C 127.519531 156.027344 146.761719 129.742188 173.605469 130.40625 C 179.074219 130.542969 185.59375 130.628906 192.320312 131.042969 C 202.71875 120.445312 217.503906 112.289062 231.355469 108.585938 C 249.714844 103.683594 271.035156 107.003906 285.472656 120.21875 C 323.699219 155.203125 302.660156 222.132812 252.4375 230.117188 C 220.15625 256.910156 170.808594 262.113281 131.550781 267.308594 C 111.726562 269.933594 98.546875 288.992188 80.03125 276.542969 C 68.226562 268.609375 56.066406 247.308594 49.769531 233.652344 C 31.816406 194.710938 36.199219 146.789062 42.667969 105.335938 Z M 42.667969 105.335938 " fill-opacity="1" fill-rule="nonzero"/><path fill="#f5cfc1" d="M 35.035156 49.773438 C 35.550781 38.019531 41.691406 26.035156 52.597656 19.945312 C 82.433594 3.285156 121.097656 30.292969 113.273438 62.871094 C 107.058594 88.730469 76.488281 101.6875 52.699219 88.90625 C 40.605469 82.410156 34.410156 64.257812 35.035156 49.773438 Z M 35.035156 49.773438 " fill-opacity="1" fill-rule="nonzero"/><path fill="#d4d4d4" d="M 46.65625 73.960938 C 47.167969 62.207031 53.308594 50.222656 64.214844 44.132812 C 94.050781 27.472656 132.714844 54.480469 124.890625 87.058594 C 118.679688 112.917969 88.105469 125.875 64.320312 113.09375 C 52.226562 106.597656 46.027344 88.445312 46.65625 73.960938 Z M 46.65625 73.960938 " fill-opacity="1" fill-rule="nonzero"/><path fill="#e7e7e7" d="M 51.214844 74.492188 C 51.667969 64.089844 57.101562 53.484375 66.753906 48.09375 C 93.15625 33.351562 127.371094 57.253906 120.445312 86.082031 C 114.949219 108.964844 87.894531 120.429688 66.84375 109.121094 C 56.140625 103.371094 50.660156 87.308594 51.214844 74.492188 Z M 51.214844 74.492188 " fill-opacity="1" fill-rule="nonzero"/><path fill="#ffffff" d="M 70.929688 76.78125 C 71.128906 72.234375 73.507812 67.59375 77.726562 65.234375 C 89.277344 58.785156 104.246094 69.242188 101.214844 81.855469 C 98.8125 91.863281 86.976562 96.878906 77.769531 91.933594 C 73.085938 89.414062 70.6875 82.390625 70.929688 76.78125 Z M 70.929688 76.78125 " fill-opacity="1" fill-rule="nonzero"/><path fill="#414370" d="M 84.125 119.605469 C 88.5625 119.605469 93.039062 118.929688 97.433594 117.5625 C 98.234375 117.316406 98.679688 116.464844 98.429688 115.667969 C 98.183594 114.867188 97.332031 114.421875 96.535156 114.667969 C 85.878906 117.980469 74.691406 116.945312 65.039062 111.761719 C 53.292969 105.449219 47.582031 87.609375 48.171875 74.027344 C 48.207031 73.191406 47.558594 72.484375 46.722656 72.449219 C 45.902344 72.398438 45.179688 73.058594 45.144531 73.898438 C 44.515625 88.398438 50.769531 107.535156 63.605469 114.429688 C 69.992188 117.863281 77.007812 119.605469 84.125 119.605469 Z M 84.125 119.605469 " fill-opacity="1" fill-rule="nonzero"/><path fill="#414370" d="M 124.890625 88.574219 C 125.574219 88.574219 126.199219 88.109375 126.363281 87.414062 C 132.023438 63.859375 114.78125 44.308594 94.84375 39.019531 C 94.035156 38.804688 93.203125 39.285156 92.988281 40.09375 C 92.773438 40.902344 93.257812 41.734375 94.066406 41.945312 C 112.597656 46.863281 128.640625 64.949219 123.417969 86.707031 C 123.222656 87.519531 123.722656 88.335938 124.539062 88.53125 C 124.65625 88.5625 124.773438 88.574219 124.890625 88.574219 Z M 124.890625 88.574219 " fill-opacity="1" fill-rule="nonzero"/><path fill="#414370" d="M 154.394531 214.066406 C 162.476562 214.066406 171.246094 212.253906 179.894531 208.648438 C 196.085938 201.902344 208.039062 190.5 211.875 178.15625 C 212.125 177.355469 211.675781 176.503906 210.878906 176.257812 C 210.078125 176.011719 209.226562 176.457031 208.980469 177.257812 C 205.410156 188.753906 194.101562 199.445312 178.730469 205.851562 C 163.214844 212.320312 147.40625 212.773438 136.441406 207.070312 C 135.695312 206.683594 134.78125 206.976562 134.398438 207.714844 C 134.011719 208.457031 134.296875 209.375 135.042969 209.757812 C 140.570312 212.636719 147.210938 214.066406 154.394531 214.066406 Z M 154.394531 214.066406 " fill-opacity="1" fill-rule="nonzero"/></g></g></g></svg>