<svg xmlns="http://www.w3.org/2000/svg" xmlns:xlink="http://www.w3.org/1999/xlink" width="1080" zoomAndPan="magnify" viewBox="0 0 810 809.999993" height="1080" preserveAspectRatio="xMidYMid meet" version="1.0"><defs><clipPath id="6045ec5d8b"><path d="M 244 291.601562 L 456 291.601562 L 456 436 L 244 436 Z M 244 291.601562 " clip-rule="nonzero"/></clipPath><clipPath id="7ba584bb27"><path d="M 243 305.851562 L 243 504.148438 C 243 512.019531 249.378906 518.398438 257.25 518.398438 L 552.75 518.398438 C 560.621094 518.398438 567 512.019531 567 504.148438 L 567 305.851562 C 567 297.980469 560.621094 291.601562 552.75 291.601562 L 257.25 291.601562 C 249.378906 291.601562 243 297.980469 243 305.851562 Z M 243 305.851562 " clip-rule="nonzero"/></clipPath><clipPath id="da9d00b3c7"><path d="M 355 386 L 567 386 L 567 516 L 355 516 Z M 355 386 " clip-rule="nonzero"/></clipPath><clipPath id="858375fbbe"><path d="M 243 305.851562 L 243 504.148438 C 243 512.019531 249.378906 518.398438 257.25 518.398438 L 552.75 518.398438 C 560.621094 518.398438 567 512.019531 567 504.148438 L 567 305.851562 C 567 297.980469 560.621094 291.601562 552.75 291.601562 L 257.25 291.601562 C 249.378906 291.601562 243 297.980469 243 305.851562 Z M 243 305.851562 " clip-rule="nonzero"/></clipPath><clipPath id="e28efa9ce6"><path d="M 259 297 L 563 297 L 563 439 L 259 439 Z M 259 297 " clip-rule="nonzero"/></clipPath><clipPath id="14c8bb2708"><path d="M 243 305.851562 L 243 504.148438 C 243 512.019531 249.378906 518.398438 257.25 518.398438 L 552.75 518.398438 C 560.621094 518.398438 567 512.019531 567 504.148438 L 567 305.851562 C 567 297.980469 560.621094 291.601562 552.75 291.601562 L 257.25 291.601562 C 249.378906 291.601562 243 297.980469 243 305.851562 Z M 243 305.851562 " clip-rule="nonzero"/></clipPath></defs><g clip-path="url(#6045ec5d8b)"><g clip-path="url(#7ba584bb27)"><path fill="#da765e" d="M 452.28125 364.875 C 455.117188 374.488281 457.441406 378.421875 454.410156 386.03125 C 451.25 392.03125 441.574219 393.964844 434.027344 394.289062 C 431.253906 394.417969 428.222656 394.222656 426.09375 392.417969 C 424.480469 391 423.707031 388.871094 423.0625 386.804688 C 420.027344 377.839844 419.511719 375.066406 416.289062 363.585938 C 376.039062 375.648438 335.917969 388.289062 295.988281 401.449219 C 296.375 410.800781 298.570312 418.542969 299.148438 422.15625 C 299.410156 423.894531 299.796875 425.894531 298.699219 427.378906 C 297.859375 428.476562 296.441406 428.925781 295.085938 429.3125 C 289.863281 430.796875 280.378906 432.667969 275.21875 434.214844 C 272.832031 434.925781 270.125 435.570312 268.058594 434.28125 C 266.316406 433.183594 265.542969 431.054688 264.898438 429.054688 C 257.160156 404.738281 246.839844 361.78125 244.386719 350.554688 C 243.160156 344.878906 265.800781 339.074219 273.15625 337.074219 C 274.511719 336.6875 275.863281 336.363281 277.285156 336.625 C 278.703125 336.882812 279.800781 338.042969 280.1875 339.398438 C 281.410156 344.171875 283.28125 344.171875 287.023438 359.070312 L 405.582031 322.046875 C 400.808594 309.273438 393.96875 304.4375 409.707031 296.503906 C 414.417969 294.117188 419.707031 293.148438 424.929688 292.246094 C 426.800781 291.921875 428.867188 291.601562 430.609375 292.308594 C 433.253906 293.46875 434.414062 296.566406 435.1875 299.40625 C 441.121094 320.046875 446.28125 344.300781 452.28125 364.875 Z M 452.28125 364.875 " fill-opacity="1" fill-rule="nonzero"/></g></g><g clip-path="url(#da9d00b3c7)"><g clip-path="url(#858375fbbe)"><path fill="#a6a6a6" d="M 369.78125 408.414062 C 371.523438 398.546875 371.070312 393.964844 377.132812 388.484375 C 382.617188 384.484375 392.164062 387 399 390.03125 C 401.515625 391.128906 404.226562 392.613281 405.324219 395.191406 C 406.160156 397.191406 405.902344 399.449219 405.582031 401.578125 C 404.289062 410.996094 403.582031 413.703125 401.453125 425.378906 C 442.929688 432.28125 484.46875 438.539062 526.136719 444.277344 C 529.878906 435.699219 531.363281 427.765625 532.457031 424.347656 C 532.972656 422.605469 533.554688 420.671875 535.167969 419.898438 C 536.394531 419.25 537.875 419.507812 539.296875 419.703125 C 544.648438 420.605469 554.003906 423.121094 559.292969 424.089844 C 561.742188 424.539062 564.453125 425.121094 565.742188 427.1875 C 566.839844 428.925781 566.582031 431.183594 566.257812 433.25 C 562.515625 458.46875 552.90625 501.621094 550.132812 512.78125 C 548.777344 518.394531 525.878906 513.621094 518.394531 512.199219 C 517.042969 511.941406 515.621094 511.683594 514.527344 510.847656 C 513.363281 510.007812 512.847656 508.460938 513.171875 507.039062 C 514.203125 502.203125 512.527344 501.363281 515.6875 486.335938 L 392.9375 467.371094 C 391.582031 480.980469 395.648438 488.269531 378.039062 488.464844 C 372.75 488.527344 367.589844 487.042969 362.492188 485.625 C 360.621094 485.109375 358.6875 484.527344 357.398438 483.046875 C 355.527344 480.851562 355.914062 477.5625 356.363281 474.660156 C 360.105469 453.566406 366.105469 429.507812 369.78125 408.414062 Z M 369.78125 408.414062 " fill-opacity="1" fill-rule="nonzero"/></g></g><g clip-path="url(#e28efa9ce6)"><g clip-path="url(#14c8bb2708)"><path fill="#3d1e22" d="M 538.199219 427.574219 C 537.8125 427.25 538.003906 426.539062 538.519531 426.476562 C 540.585938 426.152344 542.648438 426.667969 544.648438 427.121094 C 547.035156 427.636719 549.164062 428.21875 551.097656 429.703125 C 551.9375 430.347656 551.679688 431.636719 550.582031 431.699219 C 548.132812 431.828125 546.066406 431.121094 543.8125 430.28125 C 541.875 429.507812 539.746094 428.863281 538.199219 427.574219 Z M 555.292969 433.699219 C 556.390625 434.28125 557.613281 434.734375 558.582031 435.570312 C 559.550781 436.410156 559.9375 437.765625 560.902344 438.472656 C 561.355469 438.796875 562.066406 438.539062 562.324219 438.085938 C 563.226562 436.472656 562.195312 434.34375 560.902344 433.183594 C 559.550781 431.957031 557.613281 431.570312 555.871094 431.570312 C 554.710938 431.636719 554.324219 433.121094 555.292969 433.699219 Z M 383.328125 395.191406 C 387.519531 397.191406 392.355469 396.675781 394.097656 402.09375 C 395.777344 407.320312 394.808594 412.929688 394.808594 418.285156 C 394.808594 419.378906 396.355469 419.832031 396.9375 418.863281 C 398.742188 415.769531 398.484375 412.09375 398.164062 408.671875 C 397.839844 405.511719 397.648438 401.964844 396.035156 399.125 C 393.777344 395.257812 387.648438 392.675781 383.390625 394.546875 C 383.070312 394.675781 383.070312 395.0625 383.328125 395.191406 Z M 426.609375 298.371094 C 426.414062 303.339844 428.996094 308.757812 430.15625 313.53125 C 431.382812 318.5625 432.089844 323.722656 434.15625 328.496094 C 434.605469 329.527344 435.960938 328.882812 436.027344 327.980469 C 436.476562 322.5625 434.992188 317.144531 433.574219 311.917969 C 432.347656 307.273438 431.382812 301.40625 428.222656 297.664062 C 427.703125 297.019531 426.671875 297.597656 426.609375 298.371094 Z M 436.671875 334.109375 C 436.414062 335.203125 436.734375 336.496094 436.992188 337.589844 C 437.25 338.75 437.316406 340.234375 438.21875 341.074219 C 438.929688 341.71875 440.089844 341.460938 440.347656 340.492188 C 440.671875 339.269531 439.960938 338.042969 439.574219 336.882812 C 439.1875 335.785156 438.800781 334.558594 438.027344 333.71875 C 437.636719 333.332031 436.800781 333.460938 436.671875 334.109375 Z M 260.191406 345.265625 C 262.511719 345.71875 264.769531 344.945312 267.09375 345.332031 C 269.800781 345.78125 271.800781 347.460938 273.414062 349.652344 C 274.832031 351.589844 275.863281 353.78125 276.703125 356.039062 C 277.476562 358.101562 277.800781 359.910156 279.285156 361.585938 C 279.671875 362.039062 280.636719 361.972656 280.894531 361.390625 C 283.152344 356.230469 278.507812 349.136719 274.960938 345.523438 C 271.089844 341.589844 264.125 340.171875 260.0625 344.816406 C 259.933594 344.945312 259.996094 345.265625 260.191406 345.265625 Z M 260.191406 345.265625 " fill-opacity="1" fill-rule="nonzero"/></g></g></svg>