<svg xmlns="http://www.w3.org/2000/svg" xmlns:xlink="http://www.w3.org/1999/xlink" width="1080" zoomAndPan="magnify" viewBox="0 0 810 809.999993" height="1080" preserveAspectRatio="xMidYMid meet" version="1.0"><defs><clipPath id="5185573044"><path d="M 244 239 L 506 239 L 506 416 L 244 416 Z M 244 239 " clip-rule="nonzero"/></clipPath><clipPath id="cc27806ce8"><path d="M 243 253.0625 L 243 504.148438 C 243 512.019531 249.378906 518.398438 257.25 518.398438 L 628.160156 518.398438 C 636.03125 518.398438 642.410156 512.019531 642.410156 504.148438 L 642.410156 253.0625 C 642.410156 245.191406 636.03125 238.8125 628.160156 238.8125 L 257.25 238.8125 C 249.378906 238.8125 243 245.191406 243 253.0625 Z M 243 253.0625 " clip-rule="nonzero"/></clipPath><clipPath id="7034a5807e"><path d="M 382 355 L 642 355 L 642 515 L 382 515 Z M 382 355 " clip-rule="nonzero"/></clipPath><clipPath id="06e91ffe92"><path d="M 243 253.0625 L 243 504.148438 C 243 512.019531 249.378906 518.398438 257.25 518.398438 L 628.160156 518.398438 C 636.03125 518.398438 642.410156 512.019531 642.410156 504.148438 L 642.410156 253.0625 C 642.410156 245.191406 636.03125 238.8125 628.160156 238.8125 L 257.25 238.8125 C 249.378906 238.8125 243 245.191406 243 253.0625 Z M 243 253.0625 " clip-rule="nonzero"/></clipPath><clipPath id="730bbed8ac"><path d="M 263 245 L 638 245 L 638 421 L 263 421 Z M 263 245 " clip-rule="nonzero"/></clipPath><clipPath id="c8e62693a6"><path d="M 243 253.0625 L 243 504.148438 C 243 512.019531 249.378906 518.398438 257.25 518.398438 L 628.160156 518.398438 C 636.03125 518.398438 642.410156 512.019531 642.410156 504.148438 L 642.410156 253.0625 C 642.410156 245.191406 636.03125 238.8125 628.160156 238.8125 L 257.25 238.8125 C 249.378906 238.8125 243 245.191406 243 253.0625 Z M 243 253.0625 " clip-rule="nonzero"/></clipPath></defs><g clip-path="url(#5185573044)"><g clip-path="url(#cc27806ce8)"><path fill="#da765e" d="M 500.992188 329.144531 C 504.492188 340.992188 507.351562 345.84375 503.617188 355.226562 C 499.71875 362.621094 487.792969 365.007812 478.488281 365.40625 C 475.070312 365.5625 471.332031 365.324219 468.707031 363.097656 C 466.71875 361.351562 465.765625 358.726562 464.96875 356.179688 C 461.234375 345.128906 460.597656 341.707031 456.621094 327.554688 C 407 342.425781 357.542969 358.011719 308.320312 374.230469 C 308.796875 385.761719 311.5 395.304688 312.214844 399.757812 C 312.535156 401.902344 313.011719 404.371094 311.660156 406.199219 C 310.625 407.550781 308.875 408.105469 307.207031 408.582031 C 300.765625 410.414062 289.074219 412.71875 282.714844 414.628906 C 279.773438 415.5 276.433594 416.296875 273.886719 414.707031 C 271.742188 413.355469 270.785156 410.730469 269.992188 408.265625 C 260.449219 378.289062 247.726562 325.328125 244.703125 311.492188 C 243.195312 304.496094 271.105469 297.335938 280.167969 294.871094 C 281.839844 294.394531 283.507812 293.996094 285.257812 294.316406 C 287.007812 294.632812 288.359375 296.066406 288.835938 297.734375 C 290.347656 303.621094 292.652344 303.621094 297.265625 321.988281 L 443.421875 276.34375 C 437.535156 260.601562 429.109375 254.636719 448.511719 244.855469 C 454.316406 241.914062 460.835938 240.722656 467.277344 239.609375 C 469.582031 239.210938 472.125 238.8125 474.273438 239.6875 C 477.535156 241.117188 478.964844 244.933594 479.917969 248.433594 C 487.234375 273.878906 493.597656 303.777344 500.992188 329.144531 Z M 500.992188 329.144531 " fill-opacity="1" fill-rule="nonzero"/></g></g><g clip-path="url(#7034a5807e)"><g clip-path="url(#06e91ffe92)"><path fill="#a6a6a6" d="M 399.289062 382.820312 C 401.433594 370.652344 400.878906 365.007812 408.351562 358.25 C 415.113281 353.320312 426.882812 356.417969 435.308594 360.15625 C 438.410156 361.507812 441.75 363.339844 443.101562 366.519531 C 444.136719 368.984375 443.816406 371.765625 443.421875 374.390625 C 441.832031 386 440.957031 389.339844 438.332031 403.734375 C 489.460938 412.242188 540.671875 419.953125 592.039062 427.03125 C 596.652344 416.457031 598.480469 406.675781 599.832031 402.460938 C 600.46875 400.3125 601.183594 397.929688 603.171875 396.972656 C 604.683594 396.179688 606.511719 396.496094 608.261719 396.734375 C 614.863281 397.847656 626.390625 400.949219 632.914062 402.144531 C 635.933594 402.699219 639.273438 403.414062 640.863281 405.960938 C 642.214844 408.105469 641.898438 410.890625 641.5 413.433594 C 636.886719 444.527344 625.039062 497.722656 621.621094 511.480469 C 619.949219 518.398438 591.722656 512.515625 582.496094 510.765625 C 580.828125 510.445312 579.078125 510.128906 577.726562 509.09375 C 576.296875 508.0625 575.660156 506.152344 576.058594 504.402344 C 577.328125 498.4375 575.261719 497.40625 579.160156 478.878906 L 427.835938 455.5 C 426.164062 472.277344 431.175781 481.261719 409.464844 481.5 C 402.945312 481.582031 396.585938 479.753906 390.300781 478.003906 C 387.996094 477.367188 385.609375 476.652344 384.019531 474.824219 C 381.714844 472.117188 382.191406 468.0625 382.75 464.484375 C 387.359375 438.484375 394.753906 408.824219 399.289062 382.820312 Z M 399.289062 382.820312 " fill-opacity="1" fill-rule="nonzero"/></g></g><g clip-path="url(#730bbed8ac)"><g clip-path="url(#c8e62693a6)"><path fill="#3d1e22" d="M 606.910156 406.4375 C 606.433594 406.039062 606.671875 405.164062 607.308594 405.085938 C 609.851562 404.6875 612.398438 405.324219 614.863281 405.878906 C 617.804688 406.515625 620.429688 407.230469 622.8125 409.0625 C 623.847656 409.855469 623.53125 411.445312 622.175781 411.527344 C 619.15625 411.683594 616.609375 410.808594 613.828125 409.777344 C 611.441406 408.824219 608.820312 408.027344 606.910156 406.4375 Z M 627.980469 413.992188 C 629.335938 414.707031 630.84375 415.261719 632.039062 416.296875 C 633.230469 417.332031 633.707031 419 634.902344 419.875 C 635.457031 420.273438 636.332031 419.953125 636.648438 419.398438 C 637.761719 417.410156 636.492188 414.785156 634.902344 413.355469 C 633.230469 411.84375 630.84375 411.367188 628.699219 411.367188 C 627.265625 411.445312 626.789062 413.273438 627.980469 413.992188 Z M 415.988281 366.519531 C 421.15625 368.984375 427.121094 368.347656 429.265625 375.027344 C 431.332031 381.46875 430.140625 388.386719 430.140625 394.984375 C 430.140625 396.339844 432.050781 396.894531 432.765625 395.703125 C 434.992188 391.886719 434.671875 387.351562 434.277344 383.136719 C 433.878906 379.242188 433.640625 374.867188 431.652344 371.371094 C 428.867188 366.597656 421.316406 363.417969 416.066406 365.722656 C 415.667969 365.882812 415.667969 366.359375 415.988281 366.519531 Z M 469.34375 247.160156 C 469.105469 253.285156 472.285156 259.964844 473.71875 265.847656 C 475.226562 272.050781 476.101562 278.414062 478.648438 284.296875 C 479.203125 285.570312 480.875 284.773438 480.953125 283.660156 C 481.511719 276.980469 479.679688 270.300781 477.929688 263.859375 C 476.421875 258.136719 475.226562 250.898438 471.332031 246.289062 C 470.695312 245.492188 469.421875 246.207031 469.34375 247.160156 Z M 481.75 291.214844 C 481.429688 292.566406 481.828125 294.15625 482.144531 295.507812 C 482.464844 296.941406 482.542969 298.769531 483.65625 299.804688 C 484.53125 300.597656 485.964844 300.28125 486.28125 299.085938 C 486.679688 297.578125 485.804688 296.066406 485.328125 294.632812 C 484.851562 293.28125 484.371094 291.773438 483.417969 290.738281 C 482.941406 290.261719 481.90625 290.417969 481.75 291.214844 Z M 264.1875 304.972656 C 267.050781 305.527344 269.832031 304.574219 272.695312 305.050781 C 276.035156 305.609375 278.5 307.675781 280.488281 310.378906 C 282.238281 312.765625 283.507812 315.46875 284.542969 318.25 C 285.496094 320.796875 285.894531 323.023438 287.722656 325.089844 C 288.203125 325.644531 289.394531 325.566406 289.710938 324.851562 C 292.496094 318.488281 286.769531 309.742188 282.394531 305.289062 C 277.625 300.4375 269.039062 298.691406 264.027344 304.414062 C 263.867188 304.574219 263.949219 304.972656 264.1875 304.972656 Z M 264.1875 304.972656 " fill-opacity="1" fill-rule="nonzero"/></g></g></svg>