<svg xmlns="http://www.w3.org/2000/svg" xmlns:xlink="http://www.w3.org/1999/xlink" width="1080" zoomAndPan="magnify" viewBox="0 0 810 809.999993" height="1080" preserveAspectRatio="xMidYMid meet" version="1.0"><defs><clipPath id="5a22ea893a"><path d="M 463.210938 575.835938 L 502.792969 575.835938 L 502.792969 595.5 L 463.210938 595.5 Z M 463.210938 575.835938 " clip-rule="nonzero"/></clipPath><clipPath id="857880da2a"><path d="M 301.167969 575.835938 L 340.75 575.835938 L 340.75 595.5 L 301.167969 595.5 Z M 301.167969 575.835938 " clip-rule="nonzero"/></clipPath><clipPath id="63e592d3cd"><path d="M 480.527344 346 L 527.207031 346 L 527.207031 395.253906 L 480.527344 395.253906 Z M 480.527344 346 " clip-rule="nonzero"/></clipPath><clipPath id="aeb2752777"><path d="M 453.316406 452.148438 L 466.921875 452.148438 L 466.921875 470 L 453.316406 470 Z M 453.316406 452.148438 " clip-rule="nonzero"/></clipPath><clipPath id="b34026754b"><path d="M 460.738281 452.164062 L 453.609375 467.882812 L 457.027344 469.589844 L 457.039062 469.597656 C 457.398438 469.78125 457.78125 469.867188 458.15625 469.867188 C 459.058594 469.867188 459.929688 469.375 460.363281 468.515625 L 466.03125 457.542969 C 466.203125 457.195312 466.285156 456.828125 466.285156 456.460938 C 466.285156 455.5625 465.789062 454.691406 464.929688 454.25 L 460.738281 452.164062 " clip-rule="nonzero"/></clipPath></defs><path fill="#eac19b" d="M 366.925781 549.726562 C 364.578125 551.398438 378.390625 565.496094 386.503906 570.070312 C 391.640625 572.964844 392.21875 567.335938 392.21875 567.335938 C 392.21875 567.335938 378.613281 549.15625 378.699219 548.414062 C 374.148438 540.933594 372.675781 545.617188 366.925781 549.726562 " fill-opacity="1" fill-rule="nonzero"/><path fill="#38385e" d="M 366.925781 549.726562 C 366.925781 549.726562 367.164062 551.453125 372.246094 556.164062 C 378.019531 561.523438 389.683594 570.59375 392.21875 567.296875 C 399.125 569.402344 394.78125 573.480469 394.78125 573.480469 C 387.296875 573.101562 384.886719 572.542969 378.28125 568.984375 L 363.015625 558.445312 C 363.015625 558.445312 361.707031 552.015625 366.925781 549.726562 " fill-opacity="1" fill-rule="nonzero"/><path fill="#eac19b" d="M 369.203125 409.984375 L 387.484375 480.335938 C 387.484375 480.335938 373.570312 546.902344 377.488281 551.652344 C 381.410156 556.402344 366.726562 550.144531 366.726562 550.144531 L 365.195312 524.171875 L 363.683594 506.089844 C 363.324219 501.765625 364.078125 497.421875 365.871094 493.472656 C 369.164062 486.222656 368.875 477.847656 365.09375 470.839844 L 331.695312 416.417969 L 369.203125 409.984375 " fill-opacity="1" fill-rule="nonzero"/><path fill="#01478b" d="M 369.1875 409.984375 L 376.796875 439.195312 L 343.980469 445 L 331.648438 416.394531 L 369.1875 409.984375 " fill-opacity="1" fill-rule="nonzero"/><path fill="#01407d" d="M 369.1875 409.984375 L 331.648438 416.394531 L 337.617188 430.230469 L 342.757812 430.640625 C 346.269531 430.949219 349.285156 431.027344 350.449219 434.351562 L 350.6875 434.964844 L 346.539062 423.046875 C 345.378906 419.714844 342.359375 417.386719 338.847656 417.113281 L 334.195312 416.6875 L 337.476562 416.6875 L 342.757812 417.113281 C 346.269531 417.386719 349.289062 419.714844 350.449219 423.046875 L 357.261719 442.652344 L 376.796875 439.195312 L 375.089844 432.644531 L 369.191406 409.984375 L 369.1875 409.984375 " fill-opacity="1" fill-rule="nonzero"/><path fill="#4985bf" d="M 443.09375 530.839844 L 387.433594 508.75 L 387.296875 508.75 L 386.058594 508.277344 C 382.175781 506.792969 378.046875 506.03125 373.886719 506.023438 C 354.785156 505.140625 338.574219 519.910156 337.6875 539.019531 C 336.804688 558.128906 351.574219 574.332031 370.683594 575.214844 C 371.753906 575.265625 372.820312 575.265625 373.886719 575.214844 L 434.761719 575.214844 L 434.761719 575.128906 C 435.394531 575.128906 435.996094 575.214844 436.679688 575.214844 C 449.183594 575.210938 459.320312 565.066406 459.316406 552.554688 C 459.304688 542.539062 452.71875 533.71875 443.125 530.863281 L 443.09375 530.839844 " fill-opacity="1" fill-rule="nonzero"/><path fill="#7db4e9" d="M 483 577.839844 L 446.398438 566.40625 C 446.398438 566.40625 363.722656 567.976562 362.136719 566.40625 C 360.558594 564.839844 314.960938 577.839844 314.960938 577.839844 L 331.648438 588.75 C 376.359375 578.539062 422.753906 578.164062 467.625 587.632812 L 472.871094 588.75 L 483 577.839844 " fill-opacity="1" fill-rule="nonzero"/><path fill="#01478b" d="M 317.917969 436.875 L 328.121094 436.875 L 328.121094 440.363281 C 328.121094 442.308594 326.546875 443.886719 324.597656 443.886719 L 321.445312 443.886719 C 319.496094 443.886719 317.917969 442.308594 317.917969 440.363281 L 317.917969 436.875 " fill-opacity="1" fill-rule="nonzero"/><path fill="#01407d" d="M 325.117188 437.917969 L 320.921875 437.917969 L 320.921875 441.773438 C 320.921875 442.9375 321.863281 443.875 323.023438 443.875 C 324.183594 443.867188 325.117188 442.933594 325.117188 441.773438 L 325.117188 437.917969 " fill-opacity="1" fill-rule="nonzero"/><path fill="#4985bf" d="M 480.996094 390.964844 L 411.019531 535.03125 L 389.339844 534.820312 L 350.449219 434.351562 C 349.285156 431.027344 346.269531 430.949219 342.757812 430.640625 L 337.476562 430.21875 L 311.753906 430.617188 C 308.960938 430.617188 306.722656 430.765625 307.007812 433.636719 C 307.347656 436.132812 309.507812 437.976562 312.03125 437.917969 L 333.257812 437.917969 C 337.855469 437.917969 341.949219 440.828125 343.460938 445.171875 L 382.347656 545.53125 C 382.917969 547.15625 384.265625 548.378906 385.9375 548.78125 C 386.34375 548.875 386.761719 548.917969 387.175781 548.917969 C 388.414062 548.917969 416.5 558.53125 417.457031 557.640625 L 485.230469 406.140625 L 488.664062 399.300781 L 480.996094 390.964844 " fill-opacity="1" fill-rule="nonzero"/><path fill="#4277ac" d="M 413.804688 557.011719 L 413.792969 557.035156 C 414.695312 557.375 415.632812 557.578125 416.585938 557.644531 C 415.945312 557.542969 414.988281 557.320312 413.804688 557.011719 " fill-opacity="1" fill-rule="nonzero"/><path fill="#4277ac" d="M 453.671875 467.914062 L 413.804688 557.011719 C 414.988281 557.320312 415.945312 557.542969 416.585938 557.644531 C 416.816406 557.660156 417.042969 557.664062 417.273438 557.664062 C 417.320312 557.664062 417.371094 557.664062 417.417969 557.664062 L 456.867188 469.507812 L 453.671875 467.914062 M 480.996094 390.964844 L 479.648438 393.746094 L 484.761719 399.300781 L 481.320312 406.140625 L 460.726562 452.160156 L 460.738281 452.164062 L 463.921875 453.75 L 485.230469 406.140625 L 488.664062 399.300781 L 480.996094 390.964844 " fill-opacity="1" fill-rule="nonzero"/><path fill="#e5e5e5" d="M 363.679688 468.535156 L 367.910156 479.460938 C 367.5 476.476562 366.558594 473.558594 365.09375 470.839844 L 363.679688 468.535156 " fill-opacity="1" fill-rule="nonzero"/><path fill="#d2ad8b" d="M 357.261719 442.652344 L 353.894531 443.25 L 363.679688 468.535156 L 365.09375 470.839844 C 366.558594 473.558594 367.5 476.476562 367.910156 479.460938 L 378.304688 506.320312 C 378.691406 506.367188 379.074219 506.425781 379.453125 506.488281 L 357.261719 442.652344 " fill-opacity="1" fill-rule="nonzero"/><path fill="#013970" d="M 337.476562 416.6875 L 334.195312 416.6875 L 338.847656 417.113281 C 342.359375 417.386719 345.378906 419.714844 346.539062 423.046875 L 350.6875 434.964844 L 353.894531 443.25 L 357.261719 442.652344 L 350.449219 423.046875 C 349.289062 419.714844 346.269531 417.386719 342.757812 417.113281 L 337.476562 416.6875 " fill-opacity="1" fill-rule="nonzero"/><path fill="#4277ac" d="M 378.304688 506.320312 L 389.011719 533.96875 L 379.453125 506.488281 C 379.074219 506.425781 378.691406 506.367188 378.304688 506.320312 " fill-opacity="1" fill-rule="nonzero"/><path fill="#4277ac" d="M 350.6875 434.964844 L 385.433594 534.84375 L 407.113281 535.058594 L 389.328125 534.882812 L 389.011719 533.96875 L 378.304688 506.320312 L 367.910156 479.460938 L 363.679688 468.535156 L 353.894531 443.25 L 350.6875 434.964844 " fill-opacity="1" fill-rule="nonzero"/><path fill="#01478b" d="M 356.828125 497.433594 L 359.3125 506.445312 L 356.234375 507.296875 C 354.511719 507.769531 352.734375 506.757812 352.261719 505.039062 L 351.492188 502.246094 C 351.019531 500.53125 352.027344 498.753906 353.75 498.28125 L 356.828125 497.433594 " fill-opacity="1" fill-rule="nonzero"/><path fill="#e5e5e5" d="M 357.5625 500.039062 L 357.546875 500.042969 L 358.566406 503.753906 L 358.578125 503.75 L 357.5625 500.039062 " fill-opacity="1" fill-rule="nonzero"/><path fill="#01407d" d="M 357.546875 500.042969 L 353.222656 501.277344 C 352.199219 501.566406 351.597656 502.628906 351.882812 503.652344 L 351.882812 503.65625 C 352.121094 504.503906 352.894531 505.058594 353.730469 505.058594 C 353.902344 505.058594 354.074219 505.035156 354.246094 504.988281 L 358.566406 503.753906 L 357.546875 500.042969 " fill-opacity="1" fill-rule="nonzero"/><path fill="#7db4e9" d="M 359.566406 509.117188 L 356.054688 495.105469 C 355.714844 493.78125 356.511719 492.433594 357.835938 492.097656 L 357.933594 492.078125 L 366.246094 490.207031 C 367.332031 489.957031 368.453125 490.464844 368.980469 491.445312 L 377.066406 506.164062 L 359.566406 509.117188 " fill-opacity="1" fill-rule="nonzero"/><path fill="#7db4e9" d="M 426.363281 524.433594 L 434.046875 505.777344 C 434.480469 504.695312 433.964844 503.464844 432.878906 503.023438 L 432.808594 502.996094 L 421.242188 498.554688 C 419.875 498.039062 418.328125 498.484375 417.441406 499.644531 L 404.144531 517.242188 L 426.363281 524.433594 " fill-opacity="1" fill-rule="nonzero"/><path fill="#4985bf" d="M 443.09375 530.839844 L 387.433594 508.75 L 387.296875 508.75 L 386.058594 508.277344 C 382.175781 506.792969 378.046875 506.03125 373.886719 506.023438 C 354.785156 505.140625 338.574219 519.910156 337.6875 539.019531 C 336.804688 558.128906 351.574219 574.332031 370.683594 575.214844 C 371.753906 575.265625 372.820312 575.265625 373.886719 575.214844 L 434.761719 575.214844 L 434.761719 575.128906 C 435.394531 575.128906 435.996094 575.214844 436.679688 575.214844 C 449.183594 575.210938 459.320312 565.066406 459.316406 552.554688 C 459.304688 542.539062 452.71875 533.71875 443.125 530.863281 L 443.09375 530.839844 " fill-opacity="1" fill-rule="nonzero"/><path fill="#7db4e9" d="M 342.136719 544.453125 C 342.09375 525.390625 357.523438 509.90625 376.589844 509.859375 C 380.804688 509.855469 384.984375 510.613281 388.921875 512.113281 L 390.15625 512.566406 L 390.300781 512.628906 L 445.964844 534.722656 C 449.9375 535.898438 453.511719 538.144531 456.296875 541.21875 C 453.390625 536.214844 448.695312 532.515625 443.15625 530.863281 L 387.496094 508.773438 L 387.359375 508.773438 L 386.121094 508.300781 C 382.238281 506.816406 378.113281 506.058594 373.953125 506.054688 C 354.820312 506.117188 339.371094 521.679688 339.4375 540.800781 C 339.464844 548.902344 342.332031 556.742188 347.539062 562.949219 C 344.019531 557.421875 342.144531 551.011719 342.136719 544.453125 " fill-opacity="1" fill-rule="nonzero"/><path fill="#7db4e9" d="M 447.203125 548.226562 L 371.5625 522.710938 L 373.046875 505.246094 Z M 447.203125 548.226562 " fill-opacity="1" fill-rule="nonzero"/><path fill="#01478b" d="M 346 537.3125 C 347.960938 521.5 362.371094 510.265625 378.183594 512.222656 C 394.003906 514.183594 405.238281 528.59375 403.277344 544.410156 C 401.320312 560.222656 386.910156 571.457031 371.089844 569.5 C 355.277344 567.539062 344.042969 553.132812 346 537.3125 " fill-opacity="1" fill-rule="nonzero"/><path fill="#3e3431" d="M 428.574219 275.441406 C 426.101562 265.125 419.273438 259.609375 410.132812 259.472656 C 369.089844 248.703125 383.710938 303.742188 389.96875 299.882812 C 390.054688 299.820312 417.183594 294.105469 423.367188 289.75 C 427.730469 286.394531 429.757812 280.820312 428.574219 275.441406 " fill-opacity="1" fill-rule="nonzero"/><path fill="#3e3431" d="M 353.777344 433.203125 C 355.886719 433.101562 357.652344 431.566406 358.042969 429.492188 C 358.796875 427.214844 357.582031 424.757812 355.308594 423.972656 L 322.730469 415.8125 C 320.378906 415.460938 318.1875 417.050781 317.78125 419.386719 L 317.148438 421.515625 C 315.800781 425.964844 318.316406 430.667969 322.773438 432.015625 C 323.46875 432.230469 324.1875 432.347656 324.917969 432.375 L 353.777344 433.203125 " fill-opacity="1" fill-rule="nonzero"/><path fill="#eac19b" d="M 390.230469 336.234375 L 412.964844 367.15625 L 441.578125 380.144531 L 449.46875 379.199219 C 450.878906 379.199219 454.898438 380.300781 455.828125 381.363281 L 449.640625 383.75 C 448.882812 383.808594 448.1875 384.195312 447.75 384.816406 C 447.035156 385.828125 447.171875 387.210938 448.082031 388.054688 L 451.792969 391.171875 L 451.101562 391.695312 C 449.976562 392.574219 448.546875 392.96875 447.128906 392.796875 L 442.6875 392.472656 C 441.878906 392.359375 441.105469 392.066406 440.421875 391.609375 L 435.972656 387.613281 L 402.265625 374.871094 L 374.742188 344.980469 L 390.230469 336.234375 " fill-opacity="1" fill-rule="nonzero"/><path fill="#7db4e9" d="M 372.164062 524.972656 C 381.589844 523.535156 390.398438 530.007812 391.839844 539.433594 C 393.285156 548.859375 386.808594 557.667969 377.378906 559.109375 C 367.949219 560.550781 359.140625 554.078125 357.703125 544.652344 C 356.261719 535.222656 362.738281 526.414062 372.164062 524.972656 " fill-opacity="1" fill-rule="nonzero"/><path fill="#01478b" d="M 380.445312 542.851562 C 380.011719 545.996094 377.101562 548.1875 373.957031 547.753906 C 370.8125 547.3125 368.613281 544.410156 369.050781 541.265625 C 369.488281 538.132812 372.367188 535.941406 375.496094 536.355469 C 378.648438 536.765625 380.867188 539.65625 380.449219 542.808594 L 380.445312 542.851562 " fill-opacity="1" fill-rule="nonzero"/><path fill="#3c3c3b" d="M 377.613281 543.035156 L 386.65625 518.953125 L 371.292969 510.875 C 370.023438 510.203125 368.453125 510.691406 367.78125 511.957031 L 367.742188 512.039062 C 367.132812 513.296875 367.632812 514.808594 368.867188 515.464844 L 379.789062 522.664062 L 372.652344 541.105469 C 372.121094 542.464844 372.792969 544 374.152344 544.53125 C 374.382812 544.625 374.621094 544.679688 374.871094 544.707031 C 376.054688 544.832031 377.179688 544.144531 377.613281 543.035156 " fill-opacity="1" fill-rule="nonzero"/><path fill="#f6d3a9" d="M 390.886719 293.699219 L 402.128906 308.542969 L 395.414062 322.019531 C 393.726562 325.386719 393.605469 329.320312 395.078125 332.78125 L 403.601562 352.832031 C 403.601562 352.832031 401.535156 360.847656 393.050781 359.710938 C 380.011719 357.953125 358.480469 346.722656 357.808594 346.4375 L 374.546875 316.113281 C 385.082031 311.164062 390.886719 293.699219 390.886719 293.699219 " fill-opacity="1" fill-rule="nonzero"/><path fill="#eac19b" d="M 387.574219 301.367188 C 386.710938 302.988281 386.570312 304.902344 387.1875 306.636719 C 389.417969 311.523438 392.621094 315.902344 396.597656 319.511719 L 402.117188 308.453125 L 390.871094 293.613281 C 389.953125 296.269531 388.851562 298.863281 387.574219 301.367188 " fill-opacity="1" fill-rule="nonzero"/><path fill="#3cc674" d="M 374.546875 316.113281 C 388.152344 318.078125 392.601562 351.59375 403.601562 352.742188 L 405.382812 357.578125 C 408.347656 364.050781 402.597656 370.566406 396.03125 371.867188 C 392.523438 372.566406 389.515625 374.800781 387.828125 377.953125 C 379.566406 386.613281 375.285156 396.058594 366.910156 402.613281 L 359.304688 408.601562 L 328.507812 398.816406 L 332.917969 392.011719 C 343.265625 379.644531 349 368.132812 352.390625 352.335938 L 354.023438 344.792969 C 356.257812 334.433594 362.199219 325.242188 370.734375 318.953125 L 374.546875 316.113281 " fill-opacity="1" fill-rule="nonzero"/><path fill="#e5e5e5" d="M 387.828125 377.953125 C 387.359375 378.445312 386.902344 378.941406 386.457031 379.4375 C 386.910156 378.933594 387.363281 378.441406 387.828125 377.953125 M 392.921875 372.949219 C 390.777344 374.050781 388.988281 375.785156 387.828125 377.953125 C 389.003906 375.820312 390.800781 374.09375 392.972656 373.007812 L 392.921875 372.949219 " fill-opacity="1" fill-rule="nonzero"/><path fill="#36b268" d="M 366.132812 342.824219 L 382.214844 384.542969 C 383.558594 382.785156 384.972656 381.078125 386.457031 379.4375 C 386.902344 378.941406 387.359375 378.445312 387.828125 377.953125 C 388.988281 375.785156 390.777344 374.050781 392.921875 372.949219 L 370.089844 350.148438 L 366.132812 342.824219 " fill-opacity="1" fill-rule="nonzero"/><path fill="#f6d3a9" d="M 416.863281 436.253906 C 420.980469 424.84375 408.933594 419.46875 408.933594 419.46875 C 396.773438 413.570312 384.292969 408.347656 371.550781 403.828125 C 360.34375 399.78125 331.96875 403.292969 343.882812 417.976562 C 352.011719 427.96875 361.199219 433.359375 370.304688 434.824219 C 378.667969 436.269531 387.132812 437.042969 395.621094 437.132812 C 389.105469 441.960938 385.40625 449.945312 381.839844 466.945312 C 379.507812 477.0625 373.183594 494.414062 368.71875 500.339844 C 366.371094 502.003906 380.183594 516.109375 388.300781 520.683594 C 393.433594 523.59375 392.964844 518.480469 392.964844 518.480469 C 392.964844 518.480469 387.089844 509.824219 382.4375 504.398438 C 381.191406 502.917969 380.730469 500.929688 381.199219 499.054688 C 385.691406 480.867188 413.003906 446.957031 416.863281 436.253906 " fill-opacity="1" fill-rule="nonzero"/><path fill="#eac19b" d="M 355.59375 428.933594 C 351.105469 425.222656 353.296875 426.84375 355.777344 431.988281 C 379.589844 437.441406 395.574219 437.132812 395.574219 437.132812 L 399.457031 435.292969 C 399.457031 435.292969 364.460938 436.269531 355.59375 428.933594 " fill-opacity="1" fill-rule="nonzero"/><path fill="#01478b" d="M 332.917969 392.011719 C 349.675781 396.246094 366.144531 401.53125 382.226562 407.847656 C 378.605469 419.445312 368.210938 438.558594 368.210938 438.558594 C 368.210938 438.558594 350.78125 431.136719 337.855469 427.128906 C 329.199219 424.394531 324.78125 419.46875 324.015625 416.109375 C 319.90625 397.976562 332.917969 392.011719 332.917969 392.011719 " fill-opacity="1" fill-rule="nonzero"/><path fill="#3cc674" d="M 368.71875 500.277344 C 368.71875 500.277344 369.820312 501.511719 371.5625 503.636719 C 378.011719 511.382812 380.222656 501.808594 384.171875 505.0625 C 384.988281 505.730469 393.0625 519.113281 394.066406 517.886719 C 400.964844 520.003906 396.621094 524.070312 396.621094 524.070312 C 389.199219 523.679688 386.726562 523.117188 380.125 519.558594 L 364.761719 509.058594 C 364.761719 509.058594 363.5 502.574219 368.71875 500.277344 " fill-opacity="1" fill-rule="nonzero"/><path fill="#ffffff" d="M 397.367188 523.0625 C 397.144531 523.417969 396.878906 523.75 396.574219 524.046875 C 389.152344 523.648438 386.679688 523.09375 380.074219 519.535156 L 364.761719 509.058594 C 364.554688 507.746094 364.59375 506.40625 364.871094 505.113281 C 370.539062 511.382812 388.199219 524.046875 397.367188 523.0625 " fill-opacity="1" fill-rule="nonzero"/><path fill="#f6d3a9" d="M 389.4375 287.777344 C 388.621094 290.917969 389.339844 295.453125 390.5 295.761719 C 391.664062 296.070312 394.90625 294.019531 395.722656 290.878906 C 396.539062 287.738281 394.621094 284.691406 393.449219 284.40625 C 392.269531 284.125 390.230469 284.644531 389.4375 287.777344 " fill-opacity="1" fill-rule="nonzero"/><path fill="#f6d3a9" d="M 406.746094 316.644531 C 399.640625 314.835938 392.070312 309.753906 390.664062 306.027344 C 388.191406 299.304688 391.183594 297.78125 394.1875 290.394531 C 400.496094 295.054688 409.03125 276.851562 411.828125 277.507812 C 416.945312 287.128906 421.722656 288.640625 423.28125 289.75 C 421.875 293.742188 421.222656 297.964844 421.363281 302.199219 C 421.347656 303.21875 420.980469 304.199219 420.328125 304.980469 C 417.441406 308.351562 409.8125 316.929688 406.746094 316.644531 " fill-opacity="1" fill-rule="nonzero"/><path fill="#3e3431" d="M 403.996094 255.507812 C 404.503906 262.832031 398.976562 269.179688 391.652344 269.6875 C 384.324219 270.195312 377.976562 264.667969 377.464844 257.34375 C 376.957031 250.019531 382.484375 243.667969 389.8125 243.15625 C 391.566406 243.035156 393.328125 243.265625 394.992188 243.828125 C 400.074219 245.554688 403.617188 250.152344 403.996094 255.507812 " fill-opacity="1" fill-rule="nonzero"/><g clip-path="url(#5a22ea893a)"><path fill="#4985bf" d="M 474.34375 575.847656 L 491.660156 575.847656 C 497.617188 575.847656 502.445312 580.675781 502.445312 586.632812 C 502.445312 591.53125 498.476562 595.5 493.578125 595.5 L 472.449219 595.5 C 467.554688 595.5 463.582031 591.53125 463.582031 586.632812 C 463.582031 580.683594 468.394531 575.859375 474.34375 575.847656 " fill-opacity="1" fill-rule="nonzero"/></g><path fill="#01478b" d="M 472.449219 589.710938 C 470.765625 589.710938 469.40625 588.351562 469.394531 586.671875 C 469.394531 583.9375 471.609375 581.722656 474.34375 581.722656 L 491.660156 581.722656 C 494.394531 581.722656 496.609375 583.9375 496.609375 586.671875 C 496.609375 588.347656 495.246094 589.710938 493.5625 589.710938 L 472.449219 589.710938 " fill-opacity="1" fill-rule="nonzero"/><g clip-path="url(#857880da2a)"><path fill="#4985bf" d="M 311.953125 575.847656 L 329.269531 575.847656 C 335.230469 575.847656 340.0625 580.675781 340.0625 586.632812 C 340.0625 591.53125 336.089844 595.5 331.1875 595.5 L 310.035156 595.5 C 305.15625 595.5 301.1875 591.550781 301.167969 586.671875 C 301.148438 580.714844 305.960938 575.867188 311.917969 575.847656 L 311.953125 575.847656 " fill-opacity="1" fill-rule="nonzero"/></g><path fill="#01478b" d="M 310.035156 589.710938 C 308.359375 589.710938 306.996094 588.347656 306.996094 586.671875 C 306.996094 583.9375 309.210938 581.722656 311.945312 581.722656 L 329.261719 581.722656 C 331.992188 581.722656 334.210938 583.9375 334.210938 586.671875 C 334.210938 588.347656 332.847656 589.710938 331.164062 589.710938 L 310.035156 589.710938 " fill-opacity="1" fill-rule="nonzero"/><g clip-path="url(#63e592d3cd)"><path fill="#4985bf" d="M 480.996094 390.964844 L 513.046875 365.683594 C 516.320312 363.097656 518.683594 359.53125 519.777344 355.503906 L 521.78125 348.082031 C 522.105469 346.878906 523.191406 346.042969 524.441406 346.042969 C 525.957031 346.027344 527.195312 347.25 527.207031 348.765625 C 527.207031 349.015625 527.179688 349.265625 527.113281 349.507812 L 525.058594 357.492188 C 523.738281 362.675781 520.71875 367.265625 516.488281 370.53125 L 484.730469 395.019531 L 480.996094 390.964844 " fill-opacity="1" fill-rule="nonzero"/></g><path fill="#01478b" d="M 503.226562 380.769531 L 500.875 388.785156 C 498.351562 397.371094 492.265625 404.460938 484.167969 408.257812 L 472.734375 406.140625 L 480.996094 390.964844 L 488.664062 391.980469 L 503.226562 380.769531 " fill-opacity="1" fill-rule="nonzero"/><path fill="#f6d3a9" d="M 388.105469 341.429688 L 408.039062 368.898438 L 446.25 384.011719 L 454.09375 381.117188 C 456.765625 380.136719 459.761719 380.824219 461.738281 382.863281 L 465.042969 386.273438 C 465.847656 387.109375 465.824219 388.441406 464.988281 389.25 L 464.757812 389.441406 L 456.714844 395.167969 C 456.203125 395.535156 455.558594 395.65625 454.949219 395.492188 L 444.074219 392.449219 L 397.445312 381.117188 L 371.550781 351.433594 L 388.105469 341.429688 " fill-opacity="1" fill-rule="nonzero"/><path fill="#ffffff" d="M 443.59375 461.164062 L 437.234375 458.050781 C 435.5 457.195312 434.78125 455.101562 435.625 453.363281 L 444.074219 436.046875 C 445.535156 433.0625 447.996094 430.683594 451.023438 429.316406 L 456.394531 426.90625 L 457.804688 432.621094 C 458.597656 435.847656 458.230469 439.253906 456.765625 442.246094 L 448.320312 459.5625 C 447.488281 461.296875 445.40625 462.035156 443.664062 461.203125 L 443.59375 461.164062 " fill-opacity="1" fill-rule="nonzero"/><path fill="#4985bf" d="M 455.804688 424.828125 L 458.246094 426.023438 C 458.96875 426.371094 459.265625 427.238281 458.914062 427.960938 L 457.359375 431.148438 L 452.308594 428.683594 L 453.867188 425.496094 C 454.21875 424.773438 455.089844 424.480469 455.804688 424.828125 " fill-opacity="1" fill-rule="nonzero"/><path fill="#4985bf" d="M 437.6875 449.074219 L 442.957031 438.277344 L 455.652344 444.472656 L 450.382812 455.265625 L 437.6875 449.074219 " fill-opacity="1" fill-rule="nonzero"/><path fill="#ffffff" d="M 457.027344 469.589844 L 453.609375 467.882812 L 433.230469 457.714844 C 432.191406 457.195312 431.769531 455.933594 432.285156 454.894531 L 433.648438 452.175781 C 434.160156 451.140625 435.414062 450.71875 436.445312 451.230469 L 436.457031 451.238281 L 443.070312 454.535156 L 453.796875 448.699219 L 460.738281 452.164062 L 464.929688 454.25 C 466.132812 454.867188 466.621094 456.328125 466.03125 457.542969 L 460.363281 468.515625 C 459.746094 469.730469 458.257812 470.214844 457.039062 469.597656 L 457.027344 469.589844 " fill-opacity="1" fill-rule="nonzero"/><g clip-path="url(#aeb2752777)"><g clip-path="url(#b34026754b)"><path fill="#e5e5e5" d="M 453.609375 469.867188 L 466.285156 469.867188 L 466.285156 452.164062 L 453.609375 452.164062 L 453.609375 469.867188 " fill-opacity="1" fill-rule="nonzero"/></g></g></svg>