<svg xmlns="http://www.w3.org/2000/svg" xmlns:xlink="http://www.w3.org/1999/xlink" width="1080" zoomAndPan="magnify" viewBox="0 0 810 809.999993" height="1080" preserveAspectRatio="xMidYMid meet" version="1.0"><defs><clipPath id="15aa7311ad"><path d="M 479.332031 574.007812 L 522.847656 574.007812 L 522.847656 595.636719 L 479.332031 595.636719 Z M 479.332031 574.007812 " clip-rule="nonzero"/></clipPath><clipPath id="3b6e6a047d"><path d="M 301.195312 574.007812 L 344 574.007812 L 344 595.636719 L 301.195312 595.636719 Z M 301.195312 574.007812 " clip-rule="nonzero"/></clipPath><clipPath id="342aa0ff3b"><path d="M 498.371094 321 L 549.6875 321 L 549.6875 375.371094 L 498.371094 375.371094 Z M 498.371094 321 " clip-rule="nonzero"/></clipPath><clipPath id="eab074c9c6"><path d="M 468.453125 437.953125 L 483 437.953125 L 483 458 L 468.453125 458 Z M 468.453125 437.953125 " clip-rule="nonzero"/></clipPath><clipPath id="3f1e790d50"><path d="M 476.613281 437.96875 L 468.777344 455.257812 L 472.53125 457.140625 L 472.550781 457.144531 C 472.941406 457.347656 473.363281 457.441406 473.777344 457.441406 C 474.769531 457.441406 475.726562 456.902344 476.203125 455.957031 L 482.433594 443.886719 C 482.621094 443.503906 482.710938 443.097656 482.710938 442.695312 C 482.710938 441.707031 482.167969 440.75 481.222656 440.265625 L 476.613281 437.96875 " clip-rule="nonzero"/></clipPath></defs><path fill="#eac19b" d="M 373.484375 545.289062 C 370.902344 547.125 386.089844 562.632812 395.007812 567.667969 C 400.652344 570.851562 401.289062 564.660156 401.289062 564.660156 C 401.289062 564.660156 386.332031 544.660156 386.429688 543.847656 C 381.425781 535.613281 379.804688 540.769531 373.484375 545.289062 " fill-opacity="1" fill-rule="nonzero"/><path fill="#38385e" d="M 373.484375 545.289062 C 373.484375 545.289062 373.742188 547.191406 379.332031 552.371094 C 385.679688 558.265625 398.503906 568.242188 401.289062 564.617188 C 408.882812 566.933594 404.105469 571.417969 404.105469 571.417969 C 395.878906 571 393.226562 570.386719 385.964844 566.472656 L 369.1875 554.878906 C 369.1875 554.878906 367.746094 547.804688 373.484375 545.289062 " fill-opacity="1" fill-rule="nonzero"/><path fill="#eac19b" d="M 375.984375 391.574219 L 396.085938 468.960938 C 396.085938 468.960938 380.789062 542.183594 385.09375 547.40625 C 389.410156 552.632812 373.265625 545.75 373.265625 545.75 L 371.582031 517.179688 L 369.917969 497.285156 C 369.527344 492.53125 370.355469 487.753906 372.324219 483.410156 C 375.941406 475.433594 375.625 466.222656 371.46875 458.511719 L 334.753906 398.648438 L 375.984375 391.574219 " fill-opacity="1" fill-rule="nonzero"/><path fill="#01478b" d="M 375.96875 391.574219 L 384.335938 423.707031 L 348.257812 430.089844 L 334.703125 398.621094 L 375.96875 391.574219 " fill-opacity="1" fill-rule="nonzero"/><path fill="#01407d" d="M 375.96875 391.574219 L 334.703125 398.621094 L 341.261719 413.84375 L 346.914062 414.292969 C 350.773438 414.632812 354.089844 414.71875 355.371094 418.375 L 355.628906 419.050781 L 351.074219 405.941406 C 349.796875 402.277344 346.476562 399.714844 342.617188 399.414062 L 337.5 398.945312 L 341.109375 398.945312 L 346.914062 399.414062 C 350.773438 399.714844 354.09375 402.277344 355.371094 405.941406 L 362.859375 427.507812 L 384.335938 423.707031 L 382.460938 416.5 L 375.976562 391.574219 L 375.96875 391.574219 " fill-opacity="1" fill-rule="nonzero"/><path fill="#4985bf" d="M 457.21875 524.511719 L 396.027344 500.214844 L 395.878906 500.214844 L 394.519531 499.695312 C 390.246094 498.0625 385.710938 497.222656 381.136719 497.21875 C 360.136719 496.246094 342.3125 512.492188 341.339844 533.511719 C 340.371094 554.53125 356.609375 572.355469 377.617188 573.328125 C 378.789062 573.378906 379.964844 573.378906 381.136719 573.328125 L 448.054688 573.328125 L 448.054688 573.230469 C 448.753906 573.230469 449.414062 573.328125 450.164062 573.328125 C 463.910156 573.320312 475.054688 562.160156 475.050781 548.402344 C 475.039062 537.382812 467.800781 527.679688 457.25 524.539062 L 457.21875 524.511719 " fill-opacity="1" fill-rule="nonzero"/><path fill="#7db4e9" d="M 501.089844 576.214844 L 460.851562 563.636719 C 460.851562 563.636719 369.960938 565.367188 368.21875 563.636719 C 366.480469 561.910156 316.355469 576.214844 316.355469 576.214844 L 334.703125 588.214844 C 383.851562 576.984375 434.855469 576.570312 484.1875 586.984375 L 489.949219 588.214844 L 501.089844 576.214844 " fill-opacity="1" fill-rule="nonzero"/><path fill="#01478b" d="M 319.605469 421.148438 L 330.824219 421.148438 L 330.824219 424.988281 C 330.824219 427.128906 329.09375 428.867188 326.953125 428.867188 L 323.484375 428.867188 C 321.34375 428.867188 319.605469 427.128906 319.605469 424.988281 L 319.605469 421.148438 " fill-opacity="1" fill-rule="nonzero"/><path fill="#01407d" d="M 327.519531 422.296875 L 322.910156 422.296875 L 322.910156 426.539062 C 322.910156 427.820312 323.945312 428.851562 325.21875 428.851562 C 326.496094 428.84375 327.519531 427.816406 327.519531 426.539062 L 327.519531 422.296875 " fill-opacity="1" fill-rule="nonzero"/><path fill="#4985bf" d="M 498.886719 370.652344 L 421.960938 529.125 L 398.125 528.890625 L 355.371094 418.375 C 354.089844 414.71875 350.773438 414.632812 346.914062 414.292969 L 341.109375 413.832031 L 312.832031 414.269531 C 309.761719 414.269531 307.296875 414.433594 307.613281 417.589844 C 307.988281 420.335938 310.363281 422.363281 313.136719 422.296875 L 336.46875 422.296875 C 341.527344 422.296875 346.027344 425.503906 347.6875 430.28125 L 390.4375 540.675781 C 391.066406 542.460938 392.546875 543.804688 394.386719 544.25 C 394.832031 544.351562 395.289062 544.398438 395.746094 544.398438 C 397.105469 544.398438 427.984375 554.976562 429.035156 553.992188 L 503.539062 387.34375 L 507.316406 379.820312 L 498.886719 370.652344 " fill-opacity="1" fill-rule="nonzero"/><path fill="#4277ac" d="M 425.019531 553.300781 L 425.007812 553.328125 C 425.996094 553.699219 427.027344 553.921875 428.078125 554 C 427.371094 553.886719 426.320312 553.640625 425.019531 553.300781 " fill-opacity="1" fill-rule="nonzero"/><path fill="#4277ac" d="M 468.847656 455.296875 L 425.019531 553.300781 C 426.320312 553.640625 427.371094 553.886719 428.078125 554 C 428.328125 554.015625 428.578125 554.019531 428.832031 554.019531 C 428.886719 554.019531 428.9375 554.019531 428.992188 554.019531 L 472.359375 457.050781 L 468.847656 455.296875 M 498.886719 370.652344 L 497.402344 373.710938 L 503.023438 379.820312 L 499.242188 387.34375 L 476.601562 437.964844 L 476.613281 437.96875 L 480.113281 439.714844 L 503.539062 387.34375 L 507.316406 379.820312 L 498.886719 370.652344 " fill-opacity="1" fill-rule="nonzero"/><path fill="#e5e5e5" d="M 369.914062 455.976562 L 374.566406 467.996094 C 374.117188 464.714844 373.078125 461.503906 371.46875 458.511719 L 369.914062 455.976562 " fill-opacity="1" fill-rule="nonzero"/><path fill="#d2ad8b" d="M 362.859375 427.507812 L 359.15625 428.164062 L 369.914062 455.976562 L 371.46875 458.511719 C 373.078125 461.503906 374.117188 464.714844 374.566406 467.996094 L 385.992188 497.542969 C 386.417969 497.59375 386.835938 497.660156 387.257812 497.726562 L 362.859375 427.507812 " fill-opacity="1" fill-rule="nonzero"/><path fill="#013970" d="M 341.109375 398.945312 L 337.5 398.945312 L 342.617188 399.414062 C 346.476562 399.714844 349.796875 402.277344 351.074219 405.941406 L 355.628906 419.050781 L 359.15625 428.164062 L 362.859375 427.507812 L 355.371094 405.941406 C 354.09375 402.277344 350.773438 399.714844 346.914062 399.414062 L 341.109375 398.945312 " fill-opacity="1" fill-rule="nonzero"/><path fill="#4277ac" d="M 385.992188 497.542969 L 397.765625 527.957031 L 387.257812 497.726562 C 386.835938 497.660156 386.417969 497.59375 385.992188 497.542969 " fill-opacity="1" fill-rule="nonzero"/><path fill="#4277ac" d="M 355.628906 419.050781 L 393.828125 528.917969 L 417.660156 529.152344 L 398.109375 528.960938 L 397.765625 527.957031 L 385.992188 497.542969 L 374.566406 467.996094 L 369.914062 455.976562 L 359.15625 428.164062 L 355.628906 419.050781 " fill-opacity="1" fill-rule="nonzero"/><path fill="#01478b" d="M 362.382812 487.769531 L 365.113281 497.679688 L 361.726562 498.613281 C 359.835938 499.136719 357.882812 498.023438 357.363281 496.132812 L 356.515625 493.0625 C 355.996094 491.175781 357.105469 489.21875 358.996094 488.699219 L 362.382812 487.769531 " fill-opacity="1" fill-rule="nonzero"/><path fill="#e5e5e5" d="M 363.1875 490.632812 L 363.171875 490.636719 L 364.292969 494.71875 L 364.304688 494.714844 L 363.1875 490.632812 " fill-opacity="1" fill-rule="nonzero"/><path fill="#01407d" d="M 363.171875 490.636719 L 358.417969 491.992188 C 357.292969 492.3125 356.632812 493.480469 356.949219 494.609375 L 356.949219 494.613281 C 357.207031 495.542969 358.058594 496.15625 358.976562 496.15625 C 359.167969 496.15625 359.355469 496.128906 359.546875 496.074219 L 364.292969 494.71875 L 363.171875 490.636719 " fill-opacity="1" fill-rule="nonzero"/><path fill="#7db4e9" d="M 365.394531 500.617188 L 361.53125 485.207031 C 361.160156 483.75 362.035156 482.265625 363.492188 481.894531 L 363.597656 481.875 L 372.734375 479.816406 C 373.929688 479.542969 375.160156 480.097656 375.742188 481.179688 L 384.632812 497.371094 L 365.394531 500.617188 " fill-opacity="1" fill-rule="nonzero"/><path fill="#7db4e9" d="M 438.824219 517.464844 L 447.269531 496.945312 C 447.746094 495.753906 447.179688 494.402344 445.988281 493.917969 L 445.910156 493.886719 L 433.195312 489 C 431.691406 488.433594 429.992188 488.921875 429.019531 490.195312 L 414.398438 509.558594 L 438.824219 517.464844 " fill-opacity="1" fill-rule="nonzero"/><path fill="#4985bf" d="M 457.21875 524.511719 L 396.027344 500.214844 L 395.878906 500.214844 L 394.519531 499.695312 C 390.246094 498.0625 385.710938 497.222656 381.136719 497.21875 C 360.136719 496.246094 342.3125 512.492188 341.339844 533.511719 C 340.371094 554.53125 356.609375 572.355469 377.617188 573.328125 C 378.789062 573.378906 379.964844 573.378906 381.136719 573.328125 L 448.054688 573.328125 L 448.054688 573.230469 C 448.753906 573.230469 449.414062 573.328125 450.164062 573.328125 C 463.910156 573.320312 475.054688 562.160156 475.050781 548.402344 C 475.039062 537.382812 467.800781 527.679688 457.25 524.539062 L 457.21875 524.511719 " fill-opacity="1" fill-rule="nonzero"/><path fill="#7db4e9" d="M 346.234375 539.488281 C 346.1875 518.519531 363.148438 501.484375 384.105469 501.4375 C 388.738281 501.433594 393.332031 502.265625 397.664062 503.914062 L 399.023438 504.414062 L 399.183594 504.480469 L 460.375 528.785156 C 464.742188 530.078125 468.671875 532.546875 471.730469 535.929688 C 468.539062 530.429688 463.375 526.355469 457.289062 524.539062 L 396.097656 500.242188 L 395.945312 500.242188 L 394.585938 499.71875 C 390.316406 498.089844 385.78125 497.253906 381.207031 497.25 C 360.175781 497.316406 343.191406 514.4375 343.265625 535.472656 C 343.296875 544.382812 346.445312 553.003906 352.171875 559.832031 C 348.300781 553.753906 346.238281 546.703125 346.234375 539.488281 " fill-opacity="1" fill-rule="nonzero"/><path fill="#7db4e9" d="M 461.734375 543.640625 L 378.582031 515.574219 L 380.214844 496.363281 Z M 461.734375 543.640625 " fill-opacity="1" fill-rule="nonzero"/><path fill="#01478b" d="M 350.476562 531.632812 C 352.632812 514.238281 368.472656 501.882812 385.859375 504.035156 C 403.25 506.195312 415.601562 522.042969 413.445312 539.441406 C 411.292969 556.835938 395.453125 569.191406 378.0625 567.039062 C 360.675781 564.882812 348.328125 549.035156 350.476562 531.632812 " fill-opacity="1" fill-rule="nonzero"/><path fill="#3e3431" d="M 441.257812 243.574219 C 438.539062 232.226562 431.03125 226.160156 420.980469 226.011719 C 375.863281 214.164062 391.9375 274.707031 398.816406 270.460938 C 398.910156 270.390625 428.730469 264.105469 435.53125 259.316406 C 440.328125 255.621094 442.558594 249.488281 441.257812 243.574219 " fill-opacity="1" fill-rule="nonzero"/><path fill="#3e3431" d="M 359.03125 417.109375 C 361.347656 417 363.289062 415.316406 363.71875 413.03125 C 364.550781 410.527344 363.210938 407.820312 360.714844 406.960938 L 324.894531 397.984375 C 322.316406 397.597656 319.902344 399.34375 319.457031 401.917969 L 318.761719 404.253906 C 317.277344 409.148438 320.046875 414.328125 324.945312 415.808594 C 325.707031 416.042969 326.5 416.171875 327.300781 416.203125 L 359.03125 417.109375 " fill-opacity="1" fill-rule="nonzero"/><path fill="#eac19b" d="M 399.101562 310.449219 L 424.09375 344.460938 L 455.550781 358.746094 L 464.226562 357.710938 C 465.777344 357.710938 470.195312 358.921875 471.214844 360.089844 L 464.417969 362.714844 C 463.582031 362.78125 462.816406 363.207031 462.335938 363.886719 C 461.546875 365 461.703125 366.523438 462.699219 367.453125 L 466.78125 370.878906 L 466.019531 371.453125 C 464.78125 372.421875 463.210938 372.855469 461.65625 372.664062 L 456.773438 372.308594 C 455.878906 372.1875 455.03125 371.863281 454.28125 371.359375 L 449.390625 366.964844 L 412.335938 352.949219 L 382.078125 320.066406 L 399.101562 310.449219 " fill-opacity="1" fill-rule="nonzero"/><path fill="#7db4e9" d="M 379.242188 518.0625 C 389.605469 516.476562 399.289062 523.597656 400.871094 533.96875 C 402.460938 544.335938 395.339844 554.023438 384.972656 555.609375 C 374.609375 557.199219 364.925781 550.074219 363.34375 539.707031 C 361.761719 529.332031 368.878906 519.644531 379.242188 518.0625 " fill-opacity="1" fill-rule="nonzero"/><path fill="#01478b" d="M 388.347656 537.726562 C 387.867188 541.183594 384.671875 543.597656 381.210938 543.121094 C 377.753906 542.636719 375.335938 539.441406 375.820312 535.980469 C 376.296875 532.539062 379.464844 530.125 382.90625 530.582031 C 386.371094 531.035156 388.808594 534.210938 388.351562 537.675781 L 388.347656 537.726562 " fill-opacity="1" fill-rule="nonzero"/><path fill="#3c3c3b" d="M 385.234375 537.925781 L 395.171875 511.4375 L 378.285156 502.554688 C 376.886719 501.8125 375.160156 502.351562 374.421875 503.742188 L 374.382812 503.832031 C 373.710938 505.214844 374.257812 506.878906 375.617188 507.601562 L 387.625 515.519531 L 379.777344 535.804688 C 379.195312 537.300781 379.933594 538.988281 381.429688 539.574219 C 381.679688 539.675781 381.945312 539.738281 382.214844 539.765625 C 383.515625 539.902344 384.753906 539.148438 385.234375 537.925781 " fill-opacity="1" fill-rule="nonzero"/><path fill="#f6d3a9" d="M 399.824219 263.660156 L 412.183594 279.984375 L 404.800781 294.8125 C 402.949219 298.515625 402.816406 302.84375 404.429688 306.648438 L 413.800781 328.703125 C 413.800781 328.703125 411.53125 337.519531 402.203125 336.269531 C 387.867188 334.335938 364.199219 321.984375 363.460938 321.671875 L 381.859375 288.3125 C 393.445312 282.871094 399.824219 263.660156 399.824219 263.660156 " fill-opacity="1" fill-rule="nonzero"/><path fill="#eac19b" d="M 396.179688 272.09375 C 395.234375 273.878906 395.082031 275.984375 395.757812 277.890625 C 398.210938 283.265625 401.730469 288.085938 406.101562 292.054688 L 412.167969 279.890625 L 399.808594 263.5625 C 398.800781 266.484375 397.589844 269.339844 396.179688 272.09375 " fill-opacity="1" fill-rule="nonzero"/><path fill="#3cc674" d="M 381.859375 288.3125 C 396.816406 290.476562 401.710938 327.34375 413.800781 328.609375 L 415.761719 333.925781 C 419.023438 341.042969 412.699219 348.214844 405.480469 349.644531 C 401.625 350.414062 398.316406 352.867188 396.460938 356.339844 C 387.378906 365.863281 382.671875 376.253906 373.46875 383.464844 L 365.105469 390.050781 L 331.25 379.289062 L 336.097656 371.804688 C 347.472656 358.199219 353.777344 345.535156 357.503906 328.160156 L 359.300781 319.859375 C 361.753906 308.464844 368.289062 298.355469 377.667969 291.4375 L 381.859375 288.3125 " fill-opacity="1" fill-rule="nonzero"/><path fill="#e5e5e5" d="M 396.460938 356.339844 C 395.945312 356.882812 395.441406 357.421875 394.953125 357.96875 C 395.453125 357.417969 395.953125 356.875 396.460938 356.339844 M 402.0625 350.832031 C 399.703125 352.046875 397.738281 353.953125 396.460938 356.339844 C 397.753906 353.988281 399.730469 352.09375 402.121094 350.898438 L 402.0625 350.832031 " fill-opacity="1" fill-rule="nonzero"/><path fill="#36b268" d="M 372.613281 317.695312 L 390.289062 363.589844 C 391.765625 361.652344 393.324219 359.777344 394.953125 357.96875 C 395.441406 357.421875 395.945312 356.882812 396.460938 356.339844 C 397.738281 353.953125 399.703125 352.046875 402.0625 350.832031 L 376.960938 325.753906 L 372.613281 317.695312 " fill-opacity="1" fill-rule="nonzero"/><path fill="#f6d3a9" d="M 428.382812 420.46875 C 432.90625 407.917969 419.664062 402.007812 419.664062 402.007812 C 406.292969 395.519531 392.574219 389.773438 378.566406 384.796875 C 366.25 380.351562 335.050781 384.214844 348.152344 400.363281 C 357.085938 411.355469 367.1875 417.285156 377.195312 418.898438 C 386.390625 420.484375 395.699219 421.335938 405.03125 421.4375 C 397.863281 426.746094 393.800781 435.53125 389.882812 454.226562 C 387.316406 465.355469 380.363281 484.445312 375.453125 490.960938 C 372.871094 492.796875 388.058594 508.308594 396.984375 513.339844 C 402.625 516.542969 402.109375 510.917969 402.109375 510.917969 C 402.109375 510.917969 395.648438 501.394531 390.535156 495.425781 C 389.164062 493.800781 388.660156 491.609375 389.175781 489.546875 C 394.113281 469.542969 424.136719 432.242188 428.382812 420.46875 " fill-opacity="1" fill-rule="nonzero"/><path fill="#eac19b" d="M 361.027344 412.417969 C 356.09375 408.335938 358.5 410.117188 361.230469 415.777344 C 387.40625 421.777344 404.976562 421.4375 404.976562 421.4375 L 409.246094 419.414062 C 409.246094 419.414062 370.773438 420.484375 361.027344 412.417969 " fill-opacity="1" fill-rule="nonzero"/><path fill="#01478b" d="M 336.097656 371.804688 C 354.519531 376.460938 372.621094 382.273438 390.304688 389.21875 C 386.320312 401.980469 374.894531 423.003906 374.894531 423.003906 C 374.894531 423.003906 355.738281 414.839844 341.527344 410.429688 C 332.007812 407.421875 327.152344 402.007812 326.308594 398.308594 C 321.792969 378.363281 336.097656 371.804688 336.097656 371.804688 " fill-opacity="1" fill-rule="nonzero"/><path fill="#3cc674" d="M 375.453125 490.894531 C 375.453125 490.894531 376.664062 492.253906 378.582031 494.59375 C 385.667969 503.109375 388.101562 492.578125 392.441406 496.160156 C 393.339844 496.894531 402.214844 511.613281 403.320312 510.265625 C 410.90625 512.59375 406.128906 517.066406 406.128906 517.066406 C 397.972656 516.636719 395.25 516.019531 387.996094 512.101562 L 371.105469 500.554688 C 371.105469 500.554688 369.71875 493.421875 375.453125 490.894531 " fill-opacity="1" fill-rule="nonzero"/><path fill="#ffffff" d="M 406.949219 515.957031 C 406.703125 516.351562 406.410156 516.714844 406.078125 517.039062 C 397.917969 516.605469 395.199219 515.992188 387.9375 512.078125 L 371.105469 500.554688 C 370.875 499.109375 370.917969 497.636719 371.226562 496.214844 C 377.457031 503.109375 396.871094 517.039062 406.949219 515.957031 " fill-opacity="1" fill-rule="nonzero"/><path fill="#f6d3a9" d="M 398.230469 257.144531 C 397.332031 260.597656 398.125 265.585938 399.398438 265.929688 C 400.679688 266.269531 404.246094 264.007812 405.140625 260.554688 C 406.039062 257.101562 403.929688 253.753906 402.640625 253.4375 C 401.34375 253.125 399.101562 253.699219 398.230469 257.144531 " fill-opacity="1" fill-rule="nonzero"/><path fill="#f6d3a9" d="M 417.257812 288.898438 C 409.449219 286.910156 401.125 281.320312 399.582031 277.222656 C 396.859375 269.824219 400.148438 268.148438 403.453125 260.023438 C 410.390625 265.152344 419.769531 245.125 422.847656 245.847656 C 428.472656 256.429688 433.726562 258.09375 435.433594 259.316406 C 433.890625 263.707031 433.171875 268.351562 433.328125 273.007812 C 433.308594 274.128906 432.90625 275.207031 432.191406 276.066406 C 429.019531 279.777344 420.632812 289.210938 417.257812 288.898438 " fill-opacity="1" fill-rule="nonzero"/><path fill="#3e3431" d="M 414.234375 221.648438 C 414.792969 229.703125 408.714844 236.6875 400.664062 237.246094 C 392.609375 237.804688 385.632812 231.722656 385.070312 223.667969 C 384.511719 215.609375 390.585938 208.625 398.644531 208.0625 C 400.574219 207.929688 402.507812 208.179688 404.339844 208.800781 C 409.921875 210.699219 413.820312 215.757812 414.234375 221.648438 " fill-opacity="1" fill-rule="nonzero"/><g clip-path="url(#15aa7311ad)"><path fill="#4985bf" d="M 491.570312 574.023438 L 510.609375 574.023438 C 517.15625 574.023438 522.464844 579.332031 522.464844 585.886719 C 522.464844 591.273438 518.101562 595.636719 512.71875 595.636719 L 489.488281 595.636719 C 484.109375 595.636719 479.742188 591.273438 479.742188 585.886719 C 479.742188 579.34375 485.03125 574.035156 491.570312 574.023438 " fill-opacity="1" fill-rule="nonzero"/></g><path fill="#01478b" d="M 489.488281 589.269531 C 487.640625 589.269531 486.140625 587.777344 486.132812 585.929688 C 486.132812 582.917969 488.5625 580.484375 491.570312 580.484375 L 510.609375 580.484375 C 513.613281 580.484375 516.046875 582.917969 516.046875 585.929688 C 516.046875 587.773438 514.550781 589.269531 512.699219 589.269531 L 489.488281 589.269531 " fill-opacity="1" fill-rule="nonzero"/><g clip-path="url(#3b6e6a047d)"><path fill="#4985bf" d="M 313.050781 574.023438 L 332.089844 574.023438 C 338.636719 574.023438 343.949219 579.332031 343.949219 585.886719 C 343.949219 591.273438 339.582031 595.636719 334.195312 595.636719 L 310.941406 595.636719 C 305.578125 595.636719 301.214844 591.296875 301.195312 585.929688 C 301.171875 579.375 306.464844 574.042969 313.011719 574.023438 L 313.050781 574.023438 " fill-opacity="1" fill-rule="nonzero"/></g><path fill="#01478b" d="M 310.941406 589.269531 C 309.097656 589.269531 307.601562 587.773438 307.601562 585.929688 C 307.601562 582.917969 310.035156 580.484375 313.039062 580.484375 L 332.078125 580.484375 C 335.078125 580.484375 337.515625 582.917969 337.515625 585.929688 C 337.515625 587.773438 336.019531 589.269531 334.171875 589.269531 L 310.941406 589.269531 " fill-opacity="1" fill-rule="nonzero"/><g clip-path="url(#342aa0ff3b)"><path fill="#4985bf" d="M 498.886719 370.652344 L 534.117188 342.839844 C 537.71875 339.996094 540.316406 336.074219 541.519531 331.640625 L 543.722656 323.480469 C 544.078125 322.15625 545.273438 321.238281 546.644531 321.238281 C 548.3125 321.21875 549.671875 322.566406 549.6875 324.234375 C 549.6875 324.503906 549.65625 324.78125 549.582031 325.046875 L 547.324219 333.832031 C 545.875 339.535156 542.554688 344.582031 537.898438 348.175781 L 502.992188 375.109375 L 498.886719 370.652344 " fill-opacity="1" fill-rule="nonzero"/></g><path fill="#01478b" d="M 523.324219 359.4375 L 520.738281 368.253906 C 517.964844 377.699219 511.273438 385.496094 502.371094 389.671875 L 489.800781 387.34375 L 498.886719 370.652344 L 507.316406 371.765625 L 523.324219 359.4375 " fill-opacity="1" fill-rule="nonzero"/><path fill="#f6d3a9" d="M 396.765625 316.160156 L 418.683594 346.378906 L 460.6875 363.003906 L 469.308594 359.820312 C 472.246094 358.742188 475.539062 359.496094 477.710938 361.738281 L 481.34375 365.492188 C 482.230469 366.410156 482.207031 367.878906 481.285156 368.765625 L 481.03125 368.976562 L 472.191406 375.273438 C 471.628906 375.679688 470.917969 375.8125 470.25 375.632812 L 458.296875 372.28125 L 407.03125 359.820312 L 378.566406 327.167969 L 396.765625 316.160156 " fill-opacity="1" fill-rule="nonzero"/><path fill="#ffffff" d="M 457.765625 447.871094 L 450.777344 444.445312 C 448.867188 443.503906 448.078125 441.203125 449.007812 439.289062 L 458.296875 420.242188 C 459.902344 416.957031 462.605469 414.34375 465.9375 412.839844 L 471.835938 410.1875 L 473.386719 416.472656 C 474.257812 420.023438 473.855469 423.769531 472.246094 427.058594 L 462.960938 446.105469 C 462.046875 448.015625 459.757812 448.828125 457.847656 447.914062 L 457.765625 447.871094 " fill-opacity="1" fill-rule="nonzero"/><path fill="#4985bf" d="M 471.1875 407.902344 L 473.875 409.214844 C 474.667969 409.597656 474.996094 410.554688 474.609375 411.34375 L 472.898438 414.851562 L 467.347656 412.140625 L 469.058594 408.632812 C 469.445312 407.84375 470.402344 407.519531 471.1875 407.902344 " fill-opacity="1" fill-rule="nonzero"/><path fill="#4985bf" d="M 451.273438 434.570312 L 457.066406 422.695312 L 471.023438 429.511719 L 465.230469 441.382812 L 451.273438 434.570312 " fill-opacity="1" fill-rule="nonzero"/><path fill="#ffffff" d="M 472.53125 457.140625 L 468.777344 455.257812 L 446.371094 444.078125 C 445.230469 443.503906 444.769531 442.117188 445.335938 440.972656 L 446.835938 437.980469 C 447.398438 436.84375 448.773438 436.382812 449.910156 436.945312 L 449.921875 436.949219 L 457.191406 440.582031 L 468.984375 434.160156 L 476.613281 437.96875 L 481.222656 440.265625 C 482.546875 440.941406 483.082031 442.550781 482.433594 443.886719 L 476.203125 455.957031 C 475.523438 457.292969 473.886719 457.824219 472.550781 457.144531 L 472.53125 457.140625 " fill-opacity="1" fill-rule="nonzero"/><g clip-path="url(#eab074c9c6)"><g clip-path="url(#3f1e790d50)"><path fill="#e5e5e5" d="M 468.777344 457.441406 L 482.710938 457.441406 L 482.710938 437.96875 L 468.777344 437.96875 L 468.777344 457.441406 " fill-opacity="1" fill-rule="nonzero"/></g></g></svg>